<?xml version="1.0" standalone="no"?>
<!DOCTYPE svg PUBLIC "-//W3C//DTD SVG 20010904//EN"
 "http://www.w3.org/TR/2001/REC-SVG-20010904/DTD/svg10.dtd">
<svg version="1.0" xmlns="http://www.w3.org/2000/svg"
 width="500.000000pt" height="303.000000pt" viewBox="0 0 500.000000 303.000000"
 preserveAspectRatio="xMidYMid meet">

<g transform="translate(0.000000,303.000000) scale(0.100000,-0.100000)"
fill="#e5e7eb" stroke="none">
<path d="M2365 2725 c-181 -26 -337 -102 -478 -235 -68 -63 -168 -201 -188
-259 l-11 -31 -704 0 c-387 0 -704 -3 -704 -7 0 -5 12 -22 28 -38 15 -17 45
-53 67 -80 21 -28 44 -53 50 -57 5 -4 276 -8 602 -8 325 0 594 -3 596 -8 3 -4
3 -19 0 -35 l-5 -27 -420 0 -419 0 38 -47 c20 -27 45 -56 55 -66 10 -10 25
-29 34 -42 l16 -25 349 0 c295 0 349 -2 349 -14 0 -8 3 -21 6 -30 5 -14 -14
-16 -176 -16 l-181 0 20 -27 c11 -16 32 -42 48 -59 15 -18 40 -48 56 -68 l27
-35 132 -3 131 -3 41 -77 c22 -42 51 -88 64 -102 12 -15 22 -28 22 -31 0 -5
82 -86 129 -128 77 -67 211 -137 331 -173 93 -27 366 -27 460 0 252 74 468
256 571 481 l14 30 132 3 132 3 38 47 c21 26 42 51 46 57 4 5 21 26 38 45 l30
35 -181 3 c-160 2 -181 4 -176 18 3 9 6 22 6 30 0 12 54 14 349 14 l349 0 16
25 c9 13 24 32 34 42 24 24 82 99 82 107 0 3 -186 6 -414 6 l-414 0 -5 27 c-3
16 -3 31 0 35 2 5 271 8 596 8 326 0 597 4 602 8 6 4 29 29 50 57 22 27 52 63
67 80 16 16 28 33 28 38 0 4 -317 7 -704 7 l-704 0 -10 30 c-20 56 -105 175
-176 246 -141 141 -297 219 -498 249 -113 17 -141 17 -263 0z m343 -207 c231
-74 394 -245 469 -493 27 -91 25 -267 -6 -364 -39 -125 -88 -208 -176 -297
-44 -44 -94 -88 -110 -97 -172 -92 -239 -111 -385 -111 -97 0 -128 5 -200 27
-47 15 -103 38 -125 52 -22 13 -50 29 -63 34 -29 14 -175 159 -193 193 -8 14
-26 49 -41 77 -52 98 -72 185 -73 311 0 119 12 178 58 285 94 219 320 386 552
409 78 7 230 -6 293 -26z"/>
<path d="M2370 1845 c0 -176 2 -205 15 -205 13 0 15 27 15 180 0 99 4 180 8
180 8 0 42 -106 42 -132 0 -7 5 -30 11 -51 8 -31 14 -38 32 -35 19 3 26 18 49
112 15 59 29 111 32 114 4 3 6 -79 6 -181 0 -180 1 -187 20 -187 19 0 20 7 20
206 l0 205 -37 -3 c-37 -3 -37 -4 -51 -63 -30 -130 -35 -144 -43 -139 -5 3 -9
18 -9 33 0 15 -4 41 -10 57 -5 16 -14 48 -20 72 -10 39 -13 42 -45 42 l-35 0
0 -205z"/>
<path d="M1400 516 c0 -113 2 -136 15 -136 12 0 15 23 17 123 l3 122 19 -72
c12 -45 25 -73 33 -73 15 0 16 1 34 83 6 31 16 57 21 57 4 0 8 -54 8 -120 0
-73 4 -120 10 -120 6 0 10 52 10 135 l0 135 -24 0 c-20 0 -24 -6 -30 -39 -8
-50 -25 -96 -32 -88 -3 3 -11 32 -18 64 -10 53 -14 58 -38 61 l-28 3 0 -135z"/>
<path d="M2750 515 c0 -172 18 -182 22 -12 l3 122 23 -72 c24 -76 51 -99 53
-45 0 15 9 50 19 77 l18 50 1 -127 c1 -78 5 -128 11 -128 6 0 10 52 10 135 l0
135 -25 0 c-19 0 -25 -5 -25 -21 0 -31 -21 -109 -30 -109 -4 0 -11 17 -14 38
-16 90 -17 92 -42 92 l-24 0 0 -135z"/>
<path d="M3230 641 l35 -6 5 -125 5 -125 38 -3 c28 -2 37 0 37 12 0 11 -9 16
-30 16 l-30 0 0 120 0 120 -47 -1 c-45 -2 -46 -2 -13 -8z"/>
<path d="M3455 641 l30 -6 3 -120 c2 -80 7 -122 15 -127 22 -14 77 -9 77 7 0
10 -11 15 -35 15 l-35 0 0 120 0 120 -42 -1 c-39 -1 -40 -2 -13 -8z"/>
<path d="M2140 600 c0 -13 -7 -20 -20 -20 -11 0 -20 -4 -20 -9 0 -5 9 -11 20
-14 17 -4 20 -14 20 -72 0 -36 5 -75 10 -86 13 -24 70 -27 70 -4 0 10 -10 15
-30 15 l-31 0 3 73 c3 70 4 72 31 75 37 4 35 22 -3 22 -23 0 -30 4 -30 20 0
11 -4 20 -10 20 -5 0 -10 -9 -10 -20z"/>
<path d="M1673 568 c-21 -10 -23 -18 -23 -84 0 -64 3 -75 22 -88 29 -21 88
-21 88 -2 0 10 -14 16 -42 18 -39 3 -43 6 -46 31 -3 26 -2 27 47 27 l51 0 0
41 c0 61 -40 84 -97 57z m65 -20 c7 -7 12 -22 12 -35 0 -20 -5 -23 -40 -23
-35 0 -40 3 -40 23 0 27 17 47 40 47 9 0 21 -5 28 -12z"/>
<path d="M1870 478 c0 -59 4 -98 10 -98 6 0 10 33 10 78 0 82 9 102 45 102 36
0 45 -20 45 -102 0 -45 4 -78 10 -78 6 0 10 35 10 84 0 99 -8 110 -81 112
l-49 1 0 -99z"/>
<path d="M2343 569 c-25 -13 -33 -37 -33 -99 1 -56 18 -79 63 -87 53 -8 77 21
77 95 0 32 -6 66 -12 75 -16 21 -67 30 -95 16z m76 -23 c7 -9 11 -38 9 -73
l-3 -58 -39 -3 c-24 -2 -42 2 -47 10 -14 22 -10 92 7 116 17 25 56 29 73 8z"/>
<path d="M2550 568 c0 -4 5 -8 10 -8 6 0 10 -32 10 -75 0 -56 -3 -75 -13 -75
-8 0 -14 -7 -14 -15 0 -11 12 -15 49 -15 35 0 48 4 48 14 0 8 -10 16 -22 18
-21 3 -23 8 -21 61 2 66 14 87 49 87 13 0 24 4 24 9 0 5 -27 9 -60 8 -33 0
-60 -4 -60 -9z"/>
<path d="M3000 570 c0 -5 11 -10 24 -10 40 0 56 -11 56 -36 0 -21 -5 -24 -34
-24 -42 0 -66 -22 -66 -60 0 -46 23 -60 91 -58 39 2 59 7 59 16 0 6 -4 12 -10
12 -6 0 -10 30 -10 69 0 61 -3 72 -22 85 -25 18 -88 22 -88 6z m80 -125 c0
-34 -1 -35 -40 -35 -35 0 -40 3 -40 23 0 31 18 47 52 47 25 0 28 -3 28 -35z"/>
</g>
</svg>
